<svg width="10" height="17" viewBox="0 0 10 17" fill="none" xmlns="http://www.w3.org/2000/svg">
<path d="M3.0058 9.57535C2.94316 9.57535 1.56497 9.57535 0.938515 9.57535C0.604408 9.57535 0.5 9.45006 0.5 9.13683C0.5 8.30157 0.5 7.44542 0.5 6.61015C0.5 6.27604 0.62529 6.17164 0.938515 6.17164H3.0058C3.0058 6.10899 3.0058 4.89785 3.0058 4.33405C3.0058 3.49878 3.15197 2.70528 3.56961 1.97442C4.00812 1.22268 4.63457 0.72152 5.42807 0.429176C5.95012 0.241241 6.47216 0.157715 7.03596 0.157715H9.08237C9.37471 0.157715 9.5 0.283005 9.5 0.575348V2.95586C9.5 3.2482 9.37471 3.37349 9.08237 3.37349C8.51856 3.37349 7.95476 3.37349 7.39095 3.39437C6.82715 3.39437 6.5348 3.66584 6.5348 4.25052C6.51392 4.87697 6.5348 5.48254 6.5348 6.12987H8.95708C9.29118 6.12987 9.41647 6.25516 9.41647 6.58927V9.11595C9.41647 9.45006 9.31207 9.55447 8.95708 9.55447C8.20534 9.55447 6.59745 9.55447 6.5348 9.55447V16.3619C6.5348 16.7169 6.43039 16.8422 6.05452 16.8422C5.17749 16.8422 4.32135 16.8422 3.44432 16.8422C3.13109 16.8422 3.0058 16.7169 3.0058 16.4037C3.0058 14.2111 3.0058 9.63799 3.0058 9.57535Z" fill="#F7F7EE"/>
</svg>
