<svg width="16" height="15" viewBox="0 0 16 15" fill="none" xmlns="http://www.w3.org/2000/svg">
<path d="M15.4962 14.9997V14.9991H15.4999V9.48052C15.4999 6.78081 14.9246 4.70117 11.8002 4.70117C10.2983 4.70117 9.29033 5.53378 8.87884 6.32313H8.8354V4.95321H5.87305V14.9991H8.95767V10.0247C8.95767 8.71499 9.20344 7.44853 10.8091 7.44853C12.3911 7.44853 12.4147 8.94321 12.4147 10.1087V14.9997H15.4962Z" fill="#F7F7EE"/>
<path d="M0.723877 4.92578H3.85821V14.7765H0.723877V4.92578Z" fill="#F7F7EE"/>
<path d="M2.29104 0C1.3023 0 0.5 0.798563 0.5 1.78269C0.5 2.76683 1.3023 3.58209 2.29104 3.58209C3.27979 3.58209 4.08209 2.76683 4.08209 1.78269C4.08147 0.798563 3.27916 0 2.29104 0V0Z" fill="#F7F7EE"/>
</svg>
