<svg width="18" height="15" viewBox="0 0 18 15" fill="none" xmlns="http://www.w3.org/2000/svg">
<path d="M17.5 2.22894C16.8678 2.50625 16.1942 2.69006 15.4919 2.77931C16.2144 2.34794 16.7658 1.67006 17.0251 0.853C16.3514 1.25462 15.6077 1.53831 14.8151 1.69663C14.1754 1.01556 13.2638 0.59375 12.2693 0.59375C10.3398 0.59375 8.78644 2.15988 8.78644 4.07981C8.78644 4.35606 8.80981 4.62169 8.86719 4.87456C5.96975 4.73325 3.40594 3.34456 1.68362 1.22913C1.38294 1.75081 1.20656 2.34794 1.20656 2.99075C1.20656 4.19775 1.82812 5.26769 2.75463 5.88713C2.19469 5.8765 1.64538 5.71394 1.18 5.45788C1.18 5.4685 1.18 5.48231 1.18 5.49612C1.18 7.18975 2.38806 8.5965 3.97225 8.92056C3.68856 8.99813 3.37937 9.03531 3.0585 9.03531C2.83538 9.03531 2.61012 9.02256 2.39869 8.97581C2.85025 10.356 4.13163 11.3707 5.65525 11.4036C4.4695 12.3312 2.96394 12.8901 1.33406 12.8901C1.04825 12.8901 0.774125 12.8773 0.5 12.8422C2.04381 13.8378 3.87344 14.4062 5.8465 14.4062C12.2597 14.4062 15.766 9.09375 15.766 4.48887C15.766 4.33481 15.7607 4.18606 15.7533 4.03838C16.4449 3.5475 17.0261 2.93444 17.5 2.22894Z" fill="#F7F7EE"/>
</svg>
